<?xml version="1.0" encoding="utf-8"?>
<!-- Generator: Adobe Illustrator 21.0.0, SVG Export Plug-In . SVG Version: 6.00 Build 0)  -->
<svg version="1.1" id="Layer_1" xmlns="http://www.w3.org/2000/svg" xmlns:xlink="http://www.w3.org/1999/xlink" x="0px" y="0px"
	 viewBox="0 0 512 512" style="enable-background:new 0 0 512 512;" xml:space="preserve">
<style type="text/css">
	.st0{fill:#FFFFFF;}
	.st1{fill:#7289DA;}
</style>
<g id="_x35_0._Nucleus_1_">
	<g id="XMLID_98_">
		<g>
			<g>
				<path class="st0" d="M457.9,99.4c0,3.6-0.7,7-2.1,10.1c-3.9,9-12.9,15.4-23.4,15.4c-14.1,0-25.5-11.4-25.5-25.5
					c0-1.7,0.2-3.4,0.5-5c2.3-11.7,12.6-20.5,25-20.5C446.5,73.9,457.9,85.3,457.9,99.4z"/>
			</g>
			<g>
				<path class="st0" d="M336,456.7c5.3,4.7,8.7,11.5,8.7,19.1c0,14.1-11.4,25.5-25.5,25.5c-8.4,0-15.9-4.1-20.6-10.4
					c-3.1-4.2-4.9-9.4-4.9-15.1c0-14.1,11.4-25.5,25.5-25.5C325.7,450.4,331.6,452.8,336,456.7z"/>
			</g>
			<g>
				<path class="st0" d="M267.4,215c22,0,39.8,17.8,39.8,39.8c0,22-17.8,39.8-39.8,39.8s-39.8-17.8-39.8-39.8
					C227.6,232.8,245.4,215,267.4,215z"/>
			</g>
			<g>
				<path class="st0" d="M50,163.7c14.1,0,25.5,11.4,25.5,25.5c0,11.2-7.3,20.8-17.3,24.1c-2.6,0.9-5.3,1.3-8.1,1.3
					c-14.1,0-25.5-11.4-25.5-25.5c0-13.2,10-24,22.8-25.3C48.2,163.7,49.1,163.7,50,163.7z"/>
			</g>
		</g>
		<g>
			<g>
				<path class="st1" d="M267.4,509.7c-39.9,0-77.1-33.1-102.1-90.8c-12.1-27.9-20.8-59.8-25.8-94.8c-3.2-22.4-4.9-45.7-4.9-69.2
					c0-23.5,1.6-46.8,4.9-69.3c5.1-35.1,13.7-67,25.8-94.8C190.3,33.1,227.5,0,267.4,0c39.9,0,77.1,33.1,102.1,90.8
					c12.1,27.9,20.8,59.8,25.8,94.8c3.2,22.4,4.9,45.7,4.9,69.2s-1.6,46.8-4.9,69.2c-5,35.1-13.7,67-25.8,94.8
					c-7.3,16.7-15.6,31.6-24.8,44.1l-17.2-12.6c8.3-11.3,15.8-24.7,22.4-40c11.2-25.8,19.6-56.7,24.3-89.4
					c3.1-21.4,4.6-43.7,4.6-66.2c0-22.5-1.6-44.8-4.6-66.2c-4.7-32.7-13.1-63.6-24.3-89.4c-21.5-49.5-51.5-77.9-82.5-77.9
					c-31,0-61,28.4-82.5,77.9c-11.2,25.7-19.5,56.7-24.3,89.4c-3.1,21.4-4.6,43.7-4.6,66.2c0,22.5,1.6,44.8,4.6,66.2
					c4.7,32.7,13.1,63.6,24.3,89.4c21.5,49.5,51.5,77.9,82.5,77.9c8.9,0,17.7-2.3,26.3-6.8l10,18.9
					C291.9,506.5,279.7,509.7,267.4,509.7z"/>
			</g>
			<g>
				<path class="st1" d="M271.3,400.2l-7.9-19.8c20.1-8,40.1-17.8,59.7-29.1c19.5-11.2,38-23.7,55-37.1c26-20.4,48.6-43.2,65.3-65.7
					c32.1-43.3,41.7-83.6,26.2-110.4c-4.5-7.8-11-14.4-19.4-19.5l11.2-18.1c11.4,7.1,20.4,16.2,26.7,27
					c19.9,34.5,9.9,83.3-27.5,133.8c-18.1,24.4-41.4,47.9-69.2,69.8c-17.8,14-37.2,27.1-57.6,38.9
					C313.3,381.6,292.4,391.8,271.3,400.2z"/>
			</g>
			<g>
				<path class="st1" d="M147.6,427c-48.1,0-84.2-15.7-100.9-44.7c-19.9-34.5-9.9-83.3,27.5-133.8c18.1-24.4,41.4-47.9,69.2-69.8
					c17.8-14,37.2-27.1,57.5-38.8c20.3-11.7,41.3-22,62.4-30.4c32.9-13.2,64.9-21.6,95-25.1c17.9-2.1,34.8-2.3,50.1-0.6l-2.3,21.2
					c-13.8-1.5-29-1.3-45.4,0.6c-27.9,3.2-58.8,11.4-89.6,23.7c-20.1,8.1-40.2,17.8-59.7,29.1c-19.5,11.3-38,23.8-55,37.1
					c-26,20.4-48.5,43.1-65.3,65.7c-32.1,43.3-41.7,83.6-26.2,110.4c15.5,26.8,55.1,38.7,108.7,32.5c27.9-3.2,58.8-11.4,89.5-23.7
					l7.9,19.8c-32.9,13.2-64.9,21.6-95,25.1C166.3,426.4,156.8,427,147.6,427z"/>
			</g>
			<g>
				<path class="st1" d="M387.1,427c-9.1,0-18.7-0.6-28.7-1.7c-29.6-3.4-60.9-11.6-93.1-24.3h0l-1.9-0.8c-21-8.4-42-18.6-62.4-30.4
					c-20.4-11.8-39.8-24.8-57.5-38.9c-27.8-21.9-51.1-45.4-69.2-69.7c-10.9-14.7-19.6-29.4-25.8-43.6l19.5-8.6
					c5.6,12.8,13.5,26.1,23.4,39.5c16.7,22.5,39.3,45.3,65.3,65.7c17,13.4,35.5,25.9,55,37.1c19.2,11.1,38.9,20.7,58.6,28.7l1.1,0.4
					c30.7,12.3,61.7,20.5,89.5,23.7c53.6,6.2,93.2-5.7,108.7-32.5c15.5-26.8,5.9-67.1-26.2-110.4c-16.7-22.5-39.3-45.3-65.3-65.7
					c-17-13.4-35.5-25.9-55-37.2c-19.5-11.3-39.6-21.1-59.7-29.1c-30.7-12.3-61.7-20.5-89.5-23.7c-53.6-6.2-93.2,5.7-108.7,32.5
					c-4.4,7.7-6.8,16.5-7.2,26.1l-21.3-0.8c0.5-13.2,3.9-25.3,10-36c19.9-34.5,67.2-50.2,129.6-43c30.2,3.5,62.1,11.9,95,25.1
					c21,8.4,42,18.6,62.4,30.4c20.4,11.8,39.8,24.9,57.6,38.9c27.8,21.9,51.1,45.4,69.2,69.7C498,299,508,347.7,488.1,382.3
					C471.3,411.3,435.3,427,387.1,427z"/>
			</g>
			<g>
				<path class="st1" d="M267.4,305.3c-27.8,0-50.5-22.6-50.5-50.5c0-27.8,22.6-50.5,50.5-50.5s50.5,22.6,50.5,50.5
					C317.9,282.7,295.2,305.3,267.4,305.3z M267.4,225.7c-16.1,0-29.1,13.1-29.1,29.2c0,16.1,13.1,29.1,29.1,29.1
					s29.1-13.1,29.1-29.1C296.5,238.8,283.5,225.7,267.4,225.7z"/>
			</g>
			<g>
				<path class="st1" d="M50,225.3c-19.9,0-36.1-16.2-36.1-36.1c0-18.5,13.9-34,32.3-35.9l0.1,0c1.3-0.1,2.5-0.2,3.7-0.2
					c19.9,0,36.1,16.2,36.1,36.1c0,15.5-9.9,29.3-24.6,34.3C57.9,224.7,54,225.3,50,225.3z M48.4,174.4c-7.5,0.8-13.2,7.1-13.2,14.7
					c0,8.2,6.6,14.8,14.8,14.8c1.6,0,3.2-0.3,4.7-0.8c6-2,10.1-7.7,10.1-14c0-8.2-6.6-14.8-14.8-14.8
					C49.5,174.4,49,174.4,48.4,174.4z"/>
			</g>
			<g>
				<path class="st1" d="M432.4,135.5c-19.9,0-36.1-16.2-36.1-36.1c0-2.4,0.2-4.7,0.7-7.1l0,0c3.4-16.8,18.3-29.1,35.4-29.1
					c19.9,0,36.1,16.2,36.1,36.1c0,5-1,9.8-3,14.4C459.9,126.9,446.8,135.5,432.4,135.5z M417.9,96.4c-0.2,1-0.3,2-0.3,2.9
					c0,8.2,6.6,14.8,14.8,14.8c5.9,0,11.3-3.5,13.6-8.9c0.8-1.9,1.2-3.8,1.2-5.9c0-8.2-6.6-14.8-14.8-14.8
					C425.4,84.6,419.3,89.5,417.9,96.4z"/>
			</g>
			<g>
				<path class="st1" d="M319.2,512c-11.5,0-22.4-5.5-29.2-14.8c-4.6-6.2-7-13.6-7-21.4c0-19.9,16.2-36.1,36.1-36.1
					c8.8,0,17.3,3.2,23.9,9c7.8,6.8,12.3,16.7,12.3,27.1C355.4,495.8,339.1,512,319.2,512z M319.2,461c-8.2,0-14.8,6.6-14.8,14.8
					c0,3.2,1,6.2,2.8,8.7c2.8,3.9,7.2,6.1,12,6.1c8.2,0,14.8-6.6,14.8-14.8c0-4.3-1.8-8.3-5-11.1l0,0
					C326.3,462.4,322.8,461,319.2,461z"/>
			</g>
		</g>
	</g>
</g>
</svg>
